<?xml version="1.0" standalone="no"?>
<!DOCTYPE svg PUBLIC "-//W3C//DTD SVG 20010904//EN"
        "http://www.w3.org/TR/2001/REC-SVG-20010904/DTD/svg10.dtd">
<svg version="1.0" xmlns="http://www.w3.org/2000/svg"
     width="16pt" height="16pt" viewBox="0 0 16 16"
     preserveAspectRatio="xMidYMid meet">

    <polygon points="1 5, 3 5, 3 3, 5 3, 5 7, 7 7, 7 9, 5 9, 5 11, 3 11, 3 13, 1 13"/>
    <polygon points="7 5, 9 5, 9 7, 7 7" />
    <polygon points="7 9, 9 9, 9 13, 7 13" />
    <polygon points="9 7, 11 7, 11 3, 13 3, 13 5, 15 5, 15 13, 13 13, 13 11, 11 11, 11 9, 9 9" />
</svg>
